<?xml version="1.0" encoding="utf-8"?>
<!-- Generator: Adobe Illustrator 21.0.1, SVG Export Plug-In . SVG Version: 6.00 Build 0)  -->
<svg version="1.1" id="Layer_1" xmlns="http://www.w3.org/2000/svg" xmlns:xlink="http://www.w3.org/1999/xlink" x="0px" y="0px"
	 width="1700.4px" height="169px" viewBox="0 0 1700.4 169" style="enable-background:new 0 0 1700.4 169;" xml:space="preserve">
<style type="text/css">
	.st0{display:none;}
	.st1{display:inline;}
	.st2{fill:#FFDD00;}
	.st3{opacity:0.79;fill:#FFDD00;enable-background:new    ;}
	.st4{display:none;fill:#F9D003;}
	.st5{fill:#C9E4ED;}
	.st6{fill:#AFDBE6;}
	.st7{display:none;fill:#9ACDDF;}
	.st8{fill:#85C1D0;}
</style>
<g id="Layer_1_2_" class="st0">
	<g id="Layer_1_1_" class="st1">
	</g>
	<g id="Layer_2" class="st1">
		<path class="st2" d="M143.3-64.3c172,76,396.1,93.6,709.4,0c252.1-90.3,452.1-97.8,571.6,0V183c-130.2-95.6-325.3-95.3-564.5,0
			c-240.8,91.4-479.4,92.4-716.5,0L143.3-64.3L143.3-64.3z"/>
	</g>
</g>
<g id="Layer_1_copy_2">
	<g id="Layer_1_4_">
	</g>
	<path class="st3" d="M1,61.8c223.4,13.2,329.3,42.5,460.2,25c130.9-27.9,209.2-30.9,361,2c151.8,22.8,360.2-37.5,517.2-37.5
		c157.1,0,251,23.2,361.9,23.2v47.8H1.7L1,61.8z"/>
	<path class="st2" d="M1701.4,144.2c-223-5.8-340.3,4.6-471,12.4c-130.7,7.7-199.3,6.8-348.8-14.6c-151.6-21.7-360.2,12.3-517,17.4
		c-156.8,0-251.1-20.6-362-20.6v-21.4h1698.2L1701.4,144.2z"/>
	<path class="st4" d="M1701.2,26.3C1661,16.1,1598.5,3.5,1523.3,4.2c-78.8,0.8-97.7,15-190.1,18.3c-97,3.4-109.6-11.3-211.4-9.8
		c-117,1.7-122.7,21.4-220.2,21.3C781.2,33.8,764.3,3.6,645.9,3.4C536.7,3.2,525,28.8,416.9,27.6C309.8,26.4,280.5,0.8,176,0.5
		c-75.7-0.2-135,13-173.4,23v52.8h1698.8L1701.2,26.3z"/>
	<path class="st2" d="M1701.2,111.1c-40.2-3.8-102.7-8.5-177.9-8.2c-78.8,0.3-97.7,5.6-190.1,6.8c-97,1.3-109.6-17.6-211.4-17.1
		c-117,0.6-122.7,21.4-220.2,21.3c-120.4-0.1-137.3-21.2-255.7-21.3c-109.3-0.1-120.9,25.8-229,25.4
		C309.8,117.5,280.5,88.9,176,88.8c-75.7,0-135,17.5-173.4,21.2v19.5h1698.8L1701.2,111.1z"/>
</g>
<g id="Layer_1_copy_3" class="st0">
	<g id="Layer_1_3_" class="st1">
	</g>
	<g class="st1">
		<g>
			<path class="st5" d="M210.8,277.8c177-19.2,260.9-10.6,364.6,14.8c103.7,25.3,165.7,10.5,286-22.6
				c120.3-33,285.3,22.9,409.8,22.9c124.4,0,198.9-33.6,286.7-33.6v-69.4H211.3L210.8,277.8z"/>
			<path class="st6" d="M211,227.4c31.9,13.6,81.5,30.3,141.2,29.3c62.5-1,77.6-20,150.9-24.3c77-4.5,87,15,167.7,13
				c92.9-2.2,97.3-28.4,174.7-28.2c95.5,0.2,109,40.1,202.9,40.5c86.7,0.3,95.9-33.6,181.8-32.1c85,1.6,107.7,35.5,190.6,35.9
				c60.1,0.3,106.6-17.3,137.1-30.5v-69.8h-1347L211,227.4z"/>
			<path class="st7" d="M210.1,194.1c64.5,21.2,121.4,27.9,167.3,24.4c65.4-5,76.4-28.3,138.5-30.3c71.6-2.3,95.4,27.3,165.6,25.1
				c70.1-2.2,79.7-32.8,145-34c72.3-1.4,92.9,35.5,169.9,36.2c79.9,0.7,107.9-38.7,184.4-36.2c57.1,1.9,112.9,30.7,173.6,38.7
				c47.1,6.1,76.3-3.1,203.6-42.3v-61H210.1V194.1z"/>
			<path class="st8" d="M210.4,125.3c46-29.5,114.1-63,191.1-59.8c79.9,3.3,96.7,42.9,182.7,48.2c106.5,6.5,138.5-50.7,242.9-44.8
				c100.1,5.6,120.3,46.3,201.3,41.5c82.1-4.8,95.6-49,170.2-49.6c71.5-0.6,92.2,40,171.7,46.5c45.6,3.7,106.4,4.8,187.1-48.4v103.4
				H210.9L210.4,125.3z"/>
		</g>
	</g>
</g>
<g id="Layer_1_copy">
</g>
</svg>
