<?xml version="1.0" encoding="utf-8"?>
<!-- Generator: Adobe Illustrator 21.0.1, SVG Export Plug-In . SVG Version: 6.00 Build 0)  -->
<svg version="1.1" xmlns="http://www.w3.org/2000/svg" xmlns:xlink="http://www.w3.org/1999/xlink" x="0px" y="0px" width="1392px"
	 height="84.5px" viewBox="0 0 1392 84.5" style="enable-background:new 0 0 1392 84.5;" xml:space="preserve">
<style type="text/css">
	.st0{display:none;}
	.st1{display:inline;}
	.st2{fill:#FFDD00;}
	.st3{opacity:0.6;}
</style>
<g id="Layer_1" class="st0">
	<g class="st1">
		<path class="st2" d="M1197,163c-149.1,78.5-317.1,67.6-497,0c-166.4-75.5-324.2-66.3-472,0V-33c131.5-52,279.4-70.9,472,0
			c182.9,77.5,353.2,94.1,497,0V163z"/>
	</g>
</g>
<g id="Layer_1_copy" class="st0">
	<g class="st1">
		<path class="st2" d="M1392,163c-214.2,78.5-455.5,67.6-714,0C438.9,87.5,212.3,96.7,0,163V-33c188.9-52,401.4-70.9,678,0
			c262.7,77.5,507.5,94.1,714,0V163z"/>
	</g>
</g>
<g id="Layer_1_copy_2">
	<g>
		<path class="st2" d="M1392,68.9c-214.2,22.3-455.5,19.2-714,0c-239.1-21.5-465.8-18.9-678,0V13.2C188.9-1.6,401.4-7,678,13.2
			c262.7,22,507.5,26.8,714,0V68.9z"/>
	</g>
</g>
<g id="Layer_1_copy_3">
	<g class="st3">
		<path class="st2" d="M0,60.6c214.2,15.3,455.5,13.2,714,0c239.1-14.7,465.8-12.9,678,0V22.3c-188.9-10.1-401.4-13.8-678,0
			c-262.7,15.1-507.5,18.4-714,0L0,60.6z"/>
	</g>
</g>
</svg>
